<svg data-v-423bf9ae="" xmlns="http://www.w3.org/2000/svg" viewBox="0 0 218.09405353370565 188" class="iconAboveSlogan"><!----><!----><!----><g data-v-423bf9ae="" id="ae78315c-7230-4c05-bc14-c07d481d4f0f" fill="#000000" transform="matrix(3.7128713221868317,0,0,3.7128713221868317,3.415844466368185,106.60148457349159)"><path d="M7.95-0.97L7.95-0.97L7.95-0.97Q8.04-0.97 8.16-0.92L8.16-0.92L8.16-0.92Q8.29-0.87 8.37-0.67L8.37-0.67L8.37-0.67Q8.47-0.48 8.47-0.06L8.47-0.06L8.47-0.06Q8.47 0.95 8.43 1.90L8.43 1.90L8.43 1.90Q8.39 2.86 8.29 3.77L8.29 3.77L8.29 3.77Q8.11 5.56 7.71 7.21L7.71 7.21L7.71 7.21Q7.27 9.16 6.69 10.09L6.69 10.09L6.69 10.09Q6.08 11.13 5.26 11.13L5.26 11.13L5.26 11.13Q4.10 11.13 3.43 9.83L3.43 9.83L3.43 9.83Q3.09 9.21 2.94 8.39L2.94 8.39L2.94 8.39Q2.77 7.57 2.77 6.55L2.77 6.55L2.77 6.55Q2.77 6.05 2.82 5.29L2.82 5.29L2.82 5.29Q2.87 4.52 2.97 3.50L2.97 3.50L2.97 3.50Q3.05 2.49 3.10 1.91L3.10 1.91L3.10 1.91Q3.15 1.33 3.15 1.16L3.15 1.16L3.15 1.16Q3.15 0.66 3.04 0.41L3.04 0.41L3.04 0.41Q2.98 0.29 2.93 0.27L2.93 0.27L2.93 0.27Q2.87 0.24 2.83 0.24L2.83 0.24L2.83 0.24Q2.76 0.24 2.63 0.29L2.63 0.29L2.63 0.29Q2.51 0.34 2.32 0.50L2.32 0.50L2.32 0.50Q2.13 0.66 1.87 0.95L1.87 0.95L1.87 0.95Q1.61 1.25 1.27 1.72L1.27 1.72L1.27 1.72Q0.34 3.04 0.03 3.86L0.03 3.86L0.03 3.86Q0.01 3.89-0.02 4.04L-0.02 4.04L-0.02 4.04Q-0.06 4.19-0.15 4.56L-0.15 4.56L-0.15 4.56Q-0.18 4.66-0.21 4.73L-0.21 4.73L-0.21 4.73Q-0.24 4.80-0.27 4.86L-0.27 4.86L-0.27 4.86Q-0.34 4.98-0.40 5.02L-0.40 5.02L-0.40 5.02Q-0.46 5.05-0.53 5.05L-0.53 5.05L-0.53 5.05Q-0.74 5.05-0.84 4.87L-0.84 4.87L-0.84 4.87Q-0.92 4.75-0.92 4.54L-0.92 4.54L-0.92 4.54Q-0.92 4.21-0.83 3.85L-0.83 3.85L-0.83 3.85Q-0.74 3.49-0.57 3.05L-0.57 3.05L-0.57 3.05Q-0.24 2.24 0.45 1.16L0.45 1.16L0.45 1.16Q1.06 0.20 1.61-0.28L1.61-0.28L1.61-0.28Q2.20-0.78 2.76-0.78L2.76-0.78L2.76-0.78Q3.37-0.78 3.88-0.11L3.88-0.11L3.88-0.11Q4.37 0.53 4.37 1.27L4.37 1.27L4.37 1.27Q4.37 1.44 4.32 2.05L4.32 2.05L4.32 2.05Q4.27 2.66 4.17 3.75L4.17 3.75L4.17 3.75Q3.96 5.88 3.96 7.07L3.96 7.07L3.96 7.07Q3.96 8.29 4.35 9.24L4.35 9.24L4.35 9.24Q4.54 9.72 4.75 9.94L4.75 9.94L4.75 9.94Q4.94 10.14 5.12 10.14L5.12 10.14L5.12 10.14Q5.31 10.14 5.53 9.94L5.53 9.94L5.53 9.94Q5.77 9.70 5.99 9.25L5.99 9.25L5.99 9.25Q6.23 8.76 6.45 8.04L6.45 8.04L6.45 8.04Q6.68 7.31 6.87 6.33L6.87 6.33L6.87 6.33Q7.57 2.95 7.57-0.04L7.57-0.04L7.57-0.04Q7.57-0.08 7.57-0.13L7.57-0.13L7.57-0.13Q7.57-0.18 7.59-0.25L7.59-0.25L7.59-0.25Q7.59-0.28 7.59-0.31L7.59-0.31L7.59-0.31Q7.60-0.34 7.60-0.35L7.60-0.35L7.60-0.38L7.60-0.38Q7.60-0.39 7.59-0.39L7.59-0.39L7.59-0.39Q7.59-0.43 7.53-0.53L7.53-0.53L7.53-0.53Q7.43-0.67 7.56-0.80L7.56-0.80L7.56-0.80Q7.78-0.97 7.95-0.97ZM11.82 5.49L11.82 5.49L11.82 5.49Q12.00 5.49 11.98 5.59L11.98 5.59L11.98 5.59Q11.97 5.70 11.97 5.87L11.97 5.87L11.97 5.87Q11.97 5.89 11.96 5.96L11.96 5.96L11.96 5.96Q11.96 6.02 11.93 6.13L11.93 6.13L11.93 6.13Q11.90 6.24 11.86 6.44L11.86 6.44L11.86 6.44Q11.82 6.64 11.73 6.93L11.73 6.93L11.73 6.93Q11.47 8.01 11.16 8.83L11.16 8.83L11.16 8.83Q11.00 9.24 10.86 9.53L10.86 9.53L10.86 9.53Q10.71 9.81 10.57 10.01L10.57 10.01L10.57 10.01Q10.19 10.54 9.62 10.54L9.62 10.54L9.62 10.54Q8.97 10.54 8.51 9.87L8.51 9.87L8.51 9.87Q8.09 9.24 8.09 8.34L8.09 8.34L8.09 8.34Q8.09 7.62 8.20 6.87L8.20 6.87L8.20 6.87Q8.30 6.13 8.47 5.54L8.47 5.54L8.47 5.54Q8.53 5.33 8.60 5.11L8.60 5.11L8.60 5.11Q8.68 4.89 8.79 4.70L8.79 4.70L8.79 4.70Q8.90 4.51 9.04 4.39L9.04 4.39L9.04 4.39Q9.18 4.27 9.38 4.27L9.38 4.27L9.38 4.27Q9.77 4.27 10.11 4.56L10.11 4.56L10.11 4.56Q10.26 4.72 10.36 4.94L10.36 4.94L10.36 4.94Q10.46 5.17 10.46 5.33L10.46 5.33L10.46 5.33Q10.46 5.61 10.40 5.95L10.40 5.95L10.40 5.95Q10.35 6.29 10.26 6.62L10.26 6.62L10.26 6.62Q10.18 6.94 10.07 7.22L10.07 7.22L10.07 7.22Q9.97 7.49 9.86 7.66L9.86 7.66L9.86 7.66Q9.79 7.78 9.66 7.91L9.66 7.91L9.66 7.91Q9.53 8.04 9.40 8.11L9.40 8.11L9.40 8.11Q9.27 8.19 9.15 8.20L9.15 8.20L9.15 8.20Q9.03 8.20 8.95 8.09L8.95 8.09L8.95 8.09Q8.92 8.20 8.93 8.39L8.93 8.39L8.93 8.39Q8.95 8.57 8.97 8.74L8.97 8.74L8.97 8.74Q9.00 8.92 9.04 9.07L9.04 9.07L9.04 9.07Q9.09 9.23 9.11 9.30L9.11 9.30L9.11 9.30Q9.23 9.53 9.41 9.65L9.41 9.65L9.41 9.65Q9.59 9.77 9.66 9.77L9.66 9.77L9.66 9.77Q9.80 9.77 9.93 9.56L9.93 9.56L9.93 9.56Q10.07 9.35 10.28 9.03L10.28 9.03L10.28 9.03Q10.51 8.65 10.81 7.97L10.81 7.97L10.81 7.97Q11.10 7.28 11.34 6.50L11.34 6.50L11.34 6.50Q11.38 6.34 11.42 6.20L11.42 6.20L11.42 6.20Q11.45 6.05 11.49 5.89L11.49 5.89L11.49 5.89Q11.56 5.49 11.82 5.49ZM9.62 5.19L9.62 5.19L9.62 5.19Q9.51 5.50 9.42 5.75L9.42 5.75L9.42 5.75Q9.32 5.99 9.24 6.22L9.24 6.22L9.24 6.22Q9.16 6.45 9.10 6.69L9.10 6.69L9.10 6.69Q9.04 6.93 9.03 7.22L9.03 7.22L9.03 7.22Q9.21 7.21 9.35 6.97L9.35 6.97L9.35 6.97Q9.48 6.73 9.52 6.54L9.52 6.54L9.52 6.54Q9.58 6.26 9.64 5.97L9.64 5.97L9.64 5.97Q9.70 5.68 9.70 5.38L9.70 5.38L9.70 5.38Q9.70 5.31 9.68 5.20L9.68 5.20L9.68 5.20Q9.66 5.10 9.62 5.19ZM14.83 5.45L14.83 5.45L14.83 5.45Q14.84 5.45 14.90 5.45L14.90 5.45L14.90 5.45Q14.95 5.46 15.02 5.50L15.02 5.50L15.02 5.50Q15.08 5.54 15.12 5.63L15.12 5.63L15.12 5.63Q15.16 5.71 15.16 5.87L15.16 5.87L15.16 5.87Q15.16 6.19 15.01 6.78L15.01 6.78L15.01 6.78Q14.85 7.36 14.55 8.26L14.55 8.26L14.55 8.26Q14.17 9.41 13.78 9.95L13.78 9.95L13.78 9.95Q13.40 10.49 12.98 10.49L12.98 10.49L12.98 10.49Q12.32 10.49 11.82 9.74L11.82 9.74L11.82 9.74Q11.26 8.89 11.26 7.39L11.26 7.39L11.26 7.39Q11.26 6.72 11.33 5.84L11.33 5.84L11.33 5.84Q11.41 4.97 11.56 3.88L11.56 3.88L11.56 3.88Q11.89 1.78 12.19 0.84L12.19 0.84L12.19 0.84Q12.24 0.29 12.38 0.03L12.38 0.03L12.38 0.03Q12.49-0.21 12.64-0.28L12.64-0.28L12.64-0.28Q12.80-0.35 12.91-0.35L12.91-0.35L12.91-0.35Q13.10-0.35 13.31-0.28L13.31-0.28L13.31-0.28Q13.52-0.21 13.70-0.02L13.70-0.02L13.70-0.02Q13.87 0.17 13.99 0.50L13.99 0.50L13.99 0.50Q14.10 0.83 14.10 1.36L14.10 1.36L14.10 1.36Q14.10 2.67 13.59 4.35L13.59 4.35L13.59 4.35Q13.09 6.06 12.42 7.08L12.42 7.08L12.42 7.08Q12.39 7.13 12.36 7.17L12.36 7.17L12.36 7.17Q12.33 7.22 12.26 7.29L12.26 7.29L12.26 7.29Q12.17 7.42 12.14 7.49L12.14 7.49L12.14 7.49Q12.11 7.55 12.11 7.62L12.11 7.62L12.11 7.62Q12.11 8.62 12.56 9.20L12.56 9.20L12.56 9.20Q12.74 9.44 12.85 9.50L12.85 9.50L12.85 9.50Q12.95 9.56 13.01 9.56L13.01 9.56L13.01 9.56Q13.06 9.55 13.12 9.48L13.12 9.48L13.12 9.48Q13.17 9.41 13.26 9.29L13.26 9.29L13.26 9.29Q13.34 9.17 13.45 8.93L13.45 8.93L13.45 8.93Q13.80 8.19 14.22 6.76L14.22 6.76L14.22 6.76Q14.28 6.54 14.33 6.33L14.33 6.33L14.33 6.33Q14.38 6.12 14.43 5.91L14.43 5.91L14.43 5.91Q14.46 5.80 14.55 5.62L14.55 5.62L14.55 5.62Q14.63 5.45 14.83 5.45ZM13.19 1.06L13.19 1.06L13.19 1.06Q12.77 2.49 12.51 3.65L12.51 3.65L12.51 3.65Q12.25 4.80 12.17 5.71L12.17 5.71L12.17 5.71Q12.32 5.36 12.47 4.95L12.47 4.95L12.47 4.95Q12.63 4.54 12.78 4.05L12.78 4.05L12.78 4.05Q13.23 2.51 13.23 1.78L13.23 1.78L13.23 1.78Q13.23 1.32 13.19 1.06ZM16.53 4.56L16.53 4.56L16.53 4.56Q16.76 4.56 16.88 4.73L16.88 4.73L16.88 4.73Q17.01 4.90 17.07 5.14L17.07 5.14L17.07 5.14Q17.12 5.38 17.13 5.62L17.13 5.62L17.13 5.62Q17.14 5.87 17.14 6.01L17.14 6.01L17.14 6.01Q17.14 7.20 16.66 8.68L16.66 8.68L16.66 8.68Q16.39 9.56 16.11 9.97L16.11 9.97L16.11 9.97Q15.83 10.39 15.50 10.39L15.50 10.39L15.50 10.39Q14.94 10.39 14.64 9.53L14.64 9.53L14.64 9.53Q14.41 8.78 14.41 7.56L14.41 7.56L14.41 6.08L14.41 6.08Q14.35 5.85 14.43 5.71L14.43 5.71L14.43 5.70L14.45 5.68L14.45 5.68Q14.48 5.64 14.55 5.59L14.55 5.59L14.55 5.59Q14.63 5.54 14.77 5.54L14.77 5.54L14.77 5.54Q15.44 5.57 15.44 6.23L15.44 6.23L15.44 6.23Q15.44 6.38 15.43 6.58L15.43 6.58L15.43 6.58Q15.41 6.78 15.37 7.01L15.37 7.01L15.37 7.01Q15.34 7.25 15.33 7.43L15.33 7.43L15.33 7.43Q15.32 7.62 15.32 7.77L15.32 7.77L15.32 7.77Q15.32 8.25 15.34 8.55L15.34 8.55L15.34 8.55Q15.37 8.85 15.41 9.03L15.41 9.03L15.41 9.03Q15.44 9.21 15.48 9.30L15.48 9.30L15.48 9.30Q15.51 9.38 15.54 9.41L15.54 9.41L15.54 9.41Q15.58 9.34 15.69 9.09L15.69 9.09L15.69 9.09Q15.79 8.83 15.99 8.19L15.99 8.19L15.99 8.19Q16.16 7.56 16.25 7.11L16.25 7.11L16.25 7.11Q16.35 6.65 16.34 6.38L16.34 6.38L16.34 6.38Q16.37 5.67 16.32 5.36L16.32 5.36L16.32 5.36Q16.27 5.05 16.25 5.01L16.25 5.01L16.25 5.01Q16.23 4.93 16.23 4.84L16.23 4.84L16.23 4.84Q16.23 4.56 16.53 4.56ZM21.06 5.49L21.06 5.49L21.06 5.49Q21.24 5.49 21.22 5.59L21.22 5.59L21.22 5.59Q21.21 5.70 21.21 5.87L21.21 5.87L21.21 5.87Q21.21 5.89 21.20 5.96L21.20 5.96L21.20 5.96Q21.20 6.02 21.17 6.13L21.17 6.13L21.17 6.13Q21.14 6.24 21.10 6.44L21.10 6.44L21.10 6.44Q21.06 6.64 20.97 6.93L20.97 6.93L20.97 6.93Q20.71 8.01 20.40 8.83L20.40 8.83L20.40 8.83Q20.24 9.24 20.10 9.53L20.10 9.53L20.10 9.53Q19.95 9.81 19.81 10.01L19.81 10.01L19.81 10.01Q19.43 10.54 18.86 10.54L18.86 10.54L18.86 10.54Q18.21 10.54 17.75 9.87L17.75 9.87L17.75 9.87Q17.33 9.24 17.33 8.34L17.33 8.34L17.33 8.34Q17.33 7.62 17.44 6.87L17.44 6.87L17.44 6.87Q17.54 6.13 17.71 5.54L17.71 5.54L17.71 5.54Q17.77 5.33 17.84 5.11L17.84 5.11L17.84 5.11Q17.92 4.89 18.03 4.70L18.03 4.70L18.03 4.70Q18.14 4.51 18.28 4.39L18.28 4.39L18.28 4.39Q18.42 4.27 18.62 4.27L18.62 4.27L18.62 4.27Q19.01 4.27 19.35 4.56L19.35 4.56L19.35 4.56Q19.50 4.72 19.60 4.94L19.60 4.94L19.60 4.94Q19.70 5.17 19.70 5.33L19.70 5.33L19.70 5.33Q19.70 5.61 19.64 5.95L19.64 5.95L19.64 5.95Q19.59 6.29 19.50 6.62L19.50 6.62L19.50 6.62Q19.42 6.94 19.31 7.22L19.31 7.22L19.31 7.22Q19.21 7.49 19.10 7.66L19.10 7.66L19.10 7.66Q19.03 7.78 18.90 7.91L18.90 7.91L18.90 7.91Q18.77 8.04 18.64 8.11L18.64 8.11L18.64 8.11Q18.51 8.19 18.39 8.20L18.39 8.20L18.39 8.20Q18.27 8.20 18.19 8.09L18.19 8.09L18.19 8.09Q18.16 8.20 18.17 8.39L18.17 8.39L18.17 8.39Q18.19 8.57 18.21 8.74L18.21 8.74L18.21 8.74Q18.24 8.92 18.28 9.07L18.28 9.07L18.28 9.07Q18.33 9.23 18.35 9.30L18.35 9.30L18.35 9.30Q18.47 9.53 18.65 9.65L18.65 9.65L18.65 9.65Q18.83 9.77 18.90 9.77L18.90 9.77L18.90 9.77Q19.04 9.77 19.17 9.56L19.17 9.56L19.17 9.56Q19.31 9.35 19.52 9.03L19.52 9.03L19.52 9.03Q19.75 8.65 20.05 7.97L20.05 7.97L20.05 7.97Q20.34 7.28 20.58 6.50L20.58 6.50L20.58 6.50Q20.62 6.34 20.66 6.20L20.66 6.20L20.66 6.20Q20.69 6.05 20.73 5.89L20.73 5.89L20.73 5.89Q20.80 5.49 21.06 5.49ZM18.86 5.19L18.86 5.19L18.86 5.19Q18.75 5.50 18.66 5.75L18.66 5.75L18.66 5.75Q18.56 5.99 18.48 6.22L18.48 6.22L18.48 6.22Q18.40 6.45 18.34 6.69L18.34 6.69L18.34 6.69Q18.28 6.93 18.27 7.22L18.27 7.22L18.27 7.22Q18.45 7.21 18.59 6.97L18.59 6.97L18.59 6.97Q18.72 6.73 18.76 6.54L18.76 6.54L18.76 6.54Q18.82 6.26 18.88 5.97L18.88 5.97L18.88 5.97Q18.94 5.68 18.94 5.38L18.94 5.38L18.94 5.38Q18.94 5.31 18.92 5.20L18.92 5.20L18.92 5.20Q18.90 5.10 18.86 5.19ZM23.76 2.66L23.76 2.66L23.76 2.66Q23.95 2.69 23.95 2.87L23.95 2.87L23.95 2.97L23.95 2.97Q23.95 3.04 23.91 3.09L23.91 3.09L23.91 3.09Q23.87 3.15 23.73 3.21L23.73 3.21L23.73 3.21Q23.59 3.26 23.10 3.35L23.10 3.35L23.10 3.35Q22.78 3.42 22.57 3.43L22.57 3.43L22.57 3.43Q22.36 3.44 22.20 3.44L22.20 3.44L21.77 3.47L21.77 3.47Q21.74 3.67 21.71 4.09L21.71 4.09L21.71 4.09Q21.67 4.52 21.60 5.15L21.60 5.15L21.60 5.15Q21.55 5.68 21.52 6.02L21.52 6.02L21.52 6.02Q21.49 6.36 21.47 6.55L21.47 6.55L21.47 6.55Q21.45 6.75 21.44 6.83L21.44 6.83L21.44 6.83Q21.43 6.92 21.43 6.94L21.43 6.94L21.43 6.94Q21.43 7.62 21.44 8.03L21.44 8.03L21.44 8.03Q21.45 8.44 21.46 8.60L21.46 8.60L21.46 8.60Q21.50 9.04 21.58 9.18L21.58 9.18L21.58 9.18Q21.66 9.32 21.69 9.32L21.69 9.32L21.69 9.32Q21.74 9.30 21.80 9.23L21.80 9.23L21.80 9.23Q21.85 9.16 21.93 9.03L21.93 9.03L21.93 9.03Q22.01 8.90 22.12 8.67L22.12 8.67L22.12 8.67Q22.27 8.29 22.45 7.71L22.45 7.71L22.45 7.71Q22.62 7.13 22.81 6.36L22.81 6.36L22.81 6.36Q22.85 6.17 22.89 6.05L22.89 6.05L22.89 6.05Q22.93 5.92 22.96 5.82L22.96 5.82L22.96 5.82Q22.99 5.75 23.05 5.64L23.05 5.64L23.05 5.64Q23.11 5.53 23.25 5.53L23.25 5.53L23.25 5.53Q23.38 5.53 23.49 5.62L23.49 5.62L23.49 5.62Q23.60 5.71 23.60 5.95L23.60 5.95L23.60 5.95Q23.60 6.22 23.48 6.75L23.48 6.75L23.48 6.75Q23.35 7.29 23.07 8.13L23.07 8.13L23.07 8.13Q22.71 9.21 22.37 9.72L22.37 9.72L22.37 9.72Q22.02 10.23 21.64 10.23L21.64 10.23L21.64 10.23Q21.11 10.23 20.79 9.42L20.79 9.42L20.79 9.42Q20.51 8.69 20.51 7.62L20.51 7.62L20.51 7.62Q20.51 7.27 20.60 6.27L20.60 6.27L20.60 6.27Q20.69 5.28 20.89 3.50L20.89 3.50L20.89 3.50Q20.76 3.53 20.65 3.49L20.65 3.49L20.65 3.49Q20.54 3.46 20.50 3.43L20.50 3.43L20.50 3.43Q20.47 3.42 20.43 3.37L20.43 3.37L20.43 3.37Q20.38 3.33 20.27 3.29L20.27 3.29L20.27 3.29Q20.08 3.22 20.03 3.12L20.03 3.12L20.03 3.12Q19.98 3.01 19.98 2.94L19.98 2.94L19.98 2.94Q19.98 2.90 20.03 2.79L20.03 2.79L20.03 2.79Q20.08 2.69 20.36 2.63L20.36 2.63L20.36 2.63Q20.44 2.62 20.50 2.61L20.50 2.61L20.50 2.61Q20.55 2.60 20.61 2.60L20.61 2.60L20.61 2.60Q20.66 2.59 20.74 2.58L20.74 2.58L20.74 2.58Q20.82 2.58 20.94 2.56L20.94 2.56L20.94 2.56Q20.96 2.41 20.97 2.18L20.97 2.18L20.97 2.18Q20.99 1.96 21.00 1.67L21.00 1.67L20.93 1.43L20.93 1.43Q20.93 1.34 20.94 1.30L20.94 1.30L20.94 1.30Q21.06 1.08 21.29 1.08L21.29 1.08L21.29 1.08Q21.55 1.08 22.01 1.37L22.01 1.37L22.01 1.37Q22.09 1.44 22.09 1.54L22.09 1.54L22.09 1.86L22.09 1.90L22.09 1.90Q22.06 2.06 22.03 2.22L22.03 2.22L22.03 2.22Q21.99 2.38 21.95 2.58L21.95 2.58L21.95 2.58Q22.05 2.58 22.07 2.58L22.07 2.58L22.07 2.58Q22.09 2.58 22.11 2.58L22.11 2.58L22.11 2.58Q22.12 2.59 22.18 2.60L22.18 2.60L22.18 2.60Q22.23 2.60 22.43 2.60L22.43 2.60L22.43 2.60Q22.61 2.60 22.72 2.61L22.72 2.61L22.72 2.61Q22.82 2.62 22.94 2.63L22.94 2.63L22.94 2.63Q23.06 2.63 23.24 2.64L23.24 2.64L23.24 2.64Q23.42 2.65 23.76 2.66ZM32.65 2.79L32.65 2.79L32.65 2.79Q32.65 3.21 32.56 3.75L32.56 3.75L32.56 3.75Q32.48 4.28 32.37 4.79L32.37 4.79L32.37 4.79Q32.26 5.29 32.12 5.68L32.12 5.68L32.12 5.68Q31.98 6.08 31.88 6.22L31.88 6.22L31.88 6.22Q31.79 6.38 31.68 6.58L31.68 6.58L31.68 6.58Q31.29 7.25 30.67 7.74L30.67 7.74L30.67 7.74Q29.46 8.69 28 8.33L28 8.33L28 8.33Q27.93 8.30 27.85 8.28L27.85 8.28L27.85 8.28Q27.78 8.26 27.71 8.23L27.71 8.23L27.71 8.23Q27.68 8.90 27.67 9.16L27.67 9.16L27.67 9.16Q27.66 9.41 27.66 9.45L27.66 9.45L27.66 9.45Q27.66 9.90 27.70 10.20L27.70 10.20L27.70 10.20Q27.73 10.50 27.79 10.68L27.79 10.68L27.79 10.68Q27.85 10.86 27.91 10.96L27.91 10.96L27.91 10.96Q27.97 11.05 28.03 11.07L28.03 11.07L28.03 11.07Q28.14 11.16 28.11 11.30L28.11 11.30L28.11 11.30Q28.07 11.44 27.92 11.44L27.92 11.44L27.89 11.44L27.89 11.44Q27.87 11.44 27.86 11.45L27.86 11.45L27.86 11.45Q27.85 11.45 27.82 11.45L27.82 11.45L27.82 11.45Q27.75 11.48 27.70 11.48L27.70 11.48L27.70 11.48Q27.65 11.48 27.61 11.48L27.61 11.48L27.61 11.48Q27.29 11.48 27.12 11.36L27.12 11.36L27.12 11.36Q26.95 11.24 26.87 11.12L26.87 11.12L26.87 11.10L26.87 11.10Q26.81 10.99 26.76 10.80L26.76 10.80L26.76 10.80Q26.71 10.61 26.68 10.32L26.68 10.32L26.68 10.32Q26.60 9.72 26.60 7.67L26.60 7.67L26.60 7.67Q26.63 7.53 26.63 7.40L26.63 7.40L26.63 7.40Q26.63 7.27 26.63 7.13L26.63 7.13L26.63 6.82L26.63 6.82Q26.64 6.75 26.65 6.68L26.65 6.68L26.65 6.68Q26.66 6.61 26.64 6.54L26.64 6.54L26.64 6.52L26.64 6.52Q26.64 5.98 26.66 5.23L26.66 5.23L26.66 5.23Q26.68 4.48 26.75 3.53L26.75 3.53L26.75 3.53Q26.78 3.00 26.80 2.54L26.80 2.54L26.80 2.54Q26.82 2.09 26.85 1.82L26.85 1.82L26.82 1.82L26.82 1.82Q26.88 1.26 26.87 0.70L26.87 0.70L26.92 0.04L26.92 0.04Q26.95-0.04 26.98-0.08L26.98-0.08L26.98-0.08Q27.20-0.29 27.61-0.29L27.61-0.29L27.66-0.29L27.66-0.29Q28.15-0.29 28.31 0.11L28.31 0.11L28.31 0.11Q28.38 0.07 28.45 0.03L28.45 0.03L28.45 0.03Q28.52-0.01 28.59-0.04L28.59-0.04L28.59-0.04Q29.26-0.35 29.99-0.34L29.99-0.34L29.99-0.34Q30.72-0.31 31.47 0.04L31.47 0.04L31.47 0.04Q31.93 0.28 32.17 0.65L32.17 0.65L32.17 0.65Q32.41 1.02 32.52 1.42L32.52 1.42L32.52 1.42Q32.62 1.82 32.63 2.19L32.63 2.19L32.63 2.19Q32.65 2.56 32.65 2.79ZM31.25 3.96L31.25 3.96L31.25 3.96Q31.36 3.25 31.39 2.69L31.39 2.69L31.39 2.69Q31.42 2.13 31.35 1.71L31.35 1.71L31.35 1.71Q31.22 0.92 30.76 0.67L30.76 0.67L30.76 0.67Q29.92 0.21 28.98 0.77L28.98 0.77L28.98 0.77Q28.62 0.99 28.22 1.39L28.22 1.39L28.22 1.41L28.22 1.41Q28.06 2.07 27.89 4.14L27.89 4.14L27.89 4.14Q27.82 4.91 27.79 5.47L27.79 5.47L27.79 5.47Q27.76 6.03 27.75 6.37L27.75 6.37L27.75 6.37Q27.75 6.51 27.75 6.65L27.75 6.65L27.75 6.65Q27.75 6.79 27.73 6.93L27.73 6.93L27.73 6.93Q27.72 7.07 27.73 7.24L27.73 7.24L27.73 7.24Q27.87 7.31 28.02 7.37L28.02 7.37L28.02 7.37Q28.17 7.43 28.34 7.48L28.34 7.48L28.34 7.48Q29.27 7.73 29.97 7.07L29.97 7.07L29.97 7.07Q30.63 6.41 31.05 4.91L31.05 4.91L31.05 4.91Q31.11 4.69 31.16 4.45L31.16 4.45L31.16 4.45Q31.21 4.21 31.25 3.96ZM37.16 5.53L37.16 5.53L37.16 5.53Q37.27 5.53 37.37 5.61L37.37 5.61L37.37 5.61Q37.48 5.70 37.48 5.91L37.48 5.91L37.48 5.91Q37.48 6.41 36.96 8.06L36.96 8.06L36.96 8.06Q36.60 9.16 36.25 9.68L36.25 9.68L36.25 9.68Q35.91 10.21 35.52 10.21L35.52 10.21L35.52 10.21Q35.15 10.21 34.93 9.87L34.93 9.87L34.93 9.87Q34.87 9.79 34.80 9.64L34.80 9.64L34.80 9.64Q34.73 9.49 34.66 9.30L34.66 9.30L34.66 9.30Q34.52 9.63 34.48 9.76L34.48 9.76L34.48 9.76Q34.43 9.88 34.40 9.93L34.40 9.93L34.40 9.94L34.40 9.94Q34.03 10.51 33.52 10.51L33.52 10.51L33.52 10.51Q33.36 10.51 33.16 10.42L33.16 10.42L33.16 10.42Q32.96 10.33 32.77 10.04L32.77 10.04L32.77 10.04Q32.52 9.60 32.52 9.04L32.52 9.04L32.52 9.04Q32.52 8.57 32.54 8.03L32.54 8.03L32.54 8.03Q32.56 7.49 32.59 6.86L32.59 6.86L32.59 6.86Q32.62 6.37 32.65 6.09L32.65 6.09L32.65 6.09Q32.68 5.81 32.70 5.67L32.70 5.67L32.70 5.67Q32.72 5.53 32.73 5.48L32.73 5.48L32.73 5.48Q32.75 5.43 32.76 5.40L32.76 5.40L32.76 5.40Q32.80 5.33 32.90 5.26L32.90 5.26L32.90 5.26Q33.00 5.18 33.19 5.18L33.19 5.18L33.19 5.18Q33.28 5.18 33.39 5.22L33.39 5.22L33.39 5.22Q33.50 5.26 33.61 5.39L33.61 5.39L33.61 5.39Q33.80 5.57 33.80 5.78L33.80 5.78L33.80 5.78Q33.80 5.92 33.73 6.17L33.73 6.17L33.73 6.17Q33.68 6.33 33.66 6.41L33.66 6.41L33.66 6.41Q33.64 6.48 33.64 6.51L33.64 6.51L33.64 6.51Q33.43 7.67 33.43 9.27L33.43 9.27L33.43 9.27Q33.43 9.55 33.47 9.63L33.47 9.63L33.47 9.63Q33.50 9.72 33.52 9.73L33.52 9.73L33.52 9.73Q33.59 9.73 33.63 9.66L33.63 9.66L33.63 9.66Q33.68 9.59 33.73 9.52L33.73 9.52L33.73 9.52Q33.80 9.37 33.87 9.21L33.87 9.21L33.87 9.21Q33.94 9.04 34.01 8.89L34.01 8.89L34.01 8.88L34.01 8.88Q34.33 8.19 34.48 7L34.48 7L34.48 7Q34.50 6.93 34.52 6.75L34.52 6.75L34.52 6.75Q34.54 6.58 34.59 6.30L34.59 6.30L34.59 6.29L34.59 6.29Q34.66 5.89 34.66 5.73L34.66 5.73L34.66 5.33L34.66 5.33Q34.62 5.04 34.72 4.83L34.72 4.83L34.72 4.83Q34.83 4.59 35.10 4.59L35.10 4.59L35.18 4.59L35.18 4.59Q35.59 4.61 35.69 4.77L35.69 4.77L35.69 4.77Q35.78 4.93 35.78 5.04L35.78 5.04L35.78 5.04Q35.78 5.18 35.67 5.36L35.67 5.36L35.67 5.36Q35.63 5.45 35.60 5.60L35.60 5.60L35.60 5.60Q35.60 5.61 35.59 5.66L35.59 5.66L35.59 5.66Q35.59 5.70 35.57 5.82L35.57 5.82L35.57 5.82Q35.56 5.94 35.53 6.16L35.53 6.16L35.53 6.16Q35.50 6.38 35.45 6.75L35.45 6.75L35.45 6.75Q35.39 7.15 35.36 7.50L35.36 7.50L35.36 7.50Q35.34 7.84 35.34 8.11L35.34 8.11L35.34 8.11Q35.34 8.44 35.36 8.70L35.36 8.70L35.36 8.70Q35.38 8.96 35.43 9.11L35.43 9.11L35.43 9.11Q35.50 9.32 35.56 9.34L35.56 9.34L35.56 9.34Q35.57 9.34 35.62 9.30L35.62 9.30L35.62 9.30Q35.66 9.25 35.74 9.11L35.74 9.11L35.74 9.11Q35.83 8.97 35.94 8.72L35.94 8.72L35.94 8.72Q36.05 8.47 36.19 8.02L36.19 8.02L36.19 8.02Q36.34 7.46 36.49 6.94L36.49 6.94L36.49 6.94Q36.64 6.41 36.79 5.89L36.79 5.89L36.79 5.89Q36.92 5.53 37.16 5.53ZM43.12 5.43L43.12 5.43L43.12 5.43Q43.23 5.43 43.33 5.52L43.33 5.52L43.33 5.52Q43.43 5.60 43.43 5.81L43.43 5.81L43.43 5.81Q43.43 5.85 43.42 5.94L43.42 5.94L43.42 5.94Q43.41 6.02 43.39 6.17L43.39 6.17L43.39 6.17Q43.36 6.33 43.30 6.57L43.30 6.57L43.30 6.57Q43.25 6.80 43.15 7.15L43.15 7.15L43.15 7.15Q42.99 7.67 42.84 8.15L42.84 8.15L42.84 8.15Q42.69 8.62 42.52 9.06L42.52 9.06L42.52 9.06Q42.04 10.35 41.37 10.35L41.37 10.35L41.37 10.35Q40.59 10.35 40.42 8.89L40.42 8.89L40.42 8.89Q40.40 8.89 40.40 8.88L40.40 8.88L40.40 8.54L40.40 8.54Q40.31 8.85 40.24 9.05L40.24 9.05L40.24 9.05Q40.18 9.25 40.14 9.35L40.14 9.35L40.14 9.35Q39.76 10.35 39.24 10.35L39.24 10.35L39.24 10.35Q39.12 10.35 38.99 10.30L38.99 10.30L38.99 10.30Q38.86 10.26 38.76 10.14L38.76 10.14L38.76 10.14Q38.65 10.01 38.58 9.79L38.58 9.79L38.58 9.79Q38.51 9.58 38.51 9.24L38.51 9.24L38.51 9.24Q38.51 9.06 38.60 8.05L38.60 8.05L38.60 8.05Q38.63 7.77 38.63 7.52L38.63 7.52L38.63 7.52Q38.64 7.27 38.65 7.04L38.65 7.04L38.65 7.04Q38.61 7.17 38.57 7.41L38.57 7.41L38.57 7.41Q38.26 8.95 38.14 9.37L38.14 9.37L38.14 9.37Q37.76 10.56 37.17 10.56L37.17 10.56L37.17 10.56Q36.95 10.56 36.82 10.39L36.82 10.39L36.82 10.39Q36.69 10.23 36.62 9.99L36.62 9.99L36.62 9.99Q36.55 9.74 36.53 9.45L36.53 9.45L36.53 9.45Q36.51 9.16 36.51 8.88L36.51 8.88L36.51 8.88Q36.51 8.72 36.52 8.48L36.52 8.48L36.52 8.48Q36.53 8.23 36.54 7.88L36.54 7.88L36.54 7.88Q36.55 7.59 36.55 7.38L36.55 7.38L36.55 7.38Q36.55 7.18 36.55 7.04L36.55 7.04L36.44 6.73L36.44 6.73Q36.43 6.72 36.43 6.68L36.43 6.68L36.43 6.68Q36.37 5.85 36.62 5.57L36.62 5.57L36.62 5.57Q36.76 5.43 36.96 5.43L36.96 5.43L36.96 5.43Q37.04 5.43 37.15 5.46L37.15 5.46L37.15 5.46Q37.25 5.49 37.34 5.57L37.34 5.57L37.34 5.57Q37.42 5.66 37.48 5.81L37.48 5.81L37.48 5.81Q37.55 5.96 37.55 6.22L37.55 6.22L37.55 6.22Q37.55 6.80 37.44 7.32L37.44 7.32L37.44 7.32Q37.34 7.76 37.34 8.40L37.34 8.40L37.34 8.40Q37.34 8.55 37.34 8.70L37.34 8.70L37.34 8.70Q37.34 8.85 37.35 8.99L37.35 8.99L37.35 8.99Q37.38 8.89 37.41 8.80L37.41 8.80L37.41 8.80Q37.44 8.71 37.46 8.61L37.46 8.61L37.46 8.61Q37.63 7.69 37.77 7.08L37.77 7.08L37.77 7.08Q37.91 6.47 38.05 6.12L38.05 6.12L38.05 6.12Q38.08 6.05 38.14 5.92L38.14 5.92L38.14 5.92Q38.19 5.78 38.28 5.65L38.28 5.65L38.28 5.65Q38.37 5.52 38.51 5.42L38.51 5.42L38.51 5.42Q38.64 5.32 38.82 5.32L38.82 5.32L38.82 5.32Q38.93 5.32 39.08 5.39L39.08 5.39L39.08 5.39Q39.23 5.46 39.34 5.70L39.34 5.70L39.34 5.70Q39.48 5.98 39.48 6.54L39.48 6.54L39.48 6.55L39.48 6.55Q39.41 7.20 39.37 7.71L39.37 7.71L39.37 7.71Q39.33 8.22 39.33 8.60L39.33 8.60L39.33 8.60Q39.33 8.75 39.33 8.84L39.33 8.84L39.33 8.84Q39.34 8.93 39.34 9.00L39.34 9.00L39.34 9.00Q39.42 8.89 39.56 8.54L39.56 8.54L39.56 8.54Q39.69 8.19 39.89 7.45L39.89 7.45L39.89 7.45Q40.04 6.87 40.12 6.52L40.12 6.52L40.12 6.52Q40.21 6.16 40.25 5.95L40.25 5.95L40.25 5.95Q40.29 5.74 40.29 5.66L40.29 5.66L40.29 5.66Q40.29 5.59 40.29 5.56L40.29 5.56L40.29 5.49L40.29 5.49Q40.32 5.39 40.42 5.27L40.42 5.27L40.42 5.27Q40.52 5.15 40.81 5.15L40.81 5.15L40.81 5.15Q41.06 5.15 41.50 5.43L41.50 5.43L41.50 5.43Q41.62 5.52 41.58 5.64L41.58 5.64L41.58 5.64Q41.22 7.39 41.22 8.53L41.22 8.53L41.22 8.53Q41.22 8.85 41.24 9.04L41.24 9.04L41.24 9.04Q41.26 9.23 41.29 9.32L41.29 9.32L41.29 9.32Q41.33 9.44 41.37 9.48L41.37 9.48L41.37 9.48Q41.38 9.48 41.43 9.45L41.43 9.45L41.43 9.45Q41.48 9.42 41.57 9.30L41.57 9.30L41.57 9.30Q41.66 9.18 41.79 8.93L41.79 8.93L41.79 8.93Q41.92 8.67 42.07 8.20L42.07 8.20L42.07 8.19L42.07 8.19Q42.08 8.18 42.11 8.09L42.11 8.09L42.11 8.09Q42.14 7.99 42.20 7.77L42.20 7.77L42.20 7.77Q42.27 7.55 42.37 7.15L42.37 7.15L42.37 7.15Q42.48 6.76 42.64 6.15L42.64 6.15L42.64 6.15Q42.67 6.08 42.69 5.99L42.69 5.99L42.69 5.99Q42.71 5.91 42.74 5.82L42.74 5.82L42.77 5.70L42.77 5.68L42.77 5.68Q42.87 5.43 43.12 5.43ZM45.47 4.86L45.47 4.87L45.47 4.87Q45.79 5.25 45.79 6.16L45.79 6.16L45.79 6.16Q45.79 8.12 45.32 9.32L45.32 9.32L45.32 9.32Q44.80 10.63 43.95 10.63L43.95 10.63L43.95 10.63Q43.55 10.63 43.27 10.22L43.27 10.22L43.27 10.22Q43.26 10.19 43.25 10.19L43.25 10.19L43.25 10.19Q43.25 10.18 43.23 10.15L43.23 10.15L43.23 10.15Q43.02 11.49 43.02 13.17L43.02 13.17L43.02 13.17Q43.02 13.50 43.04 13.77L43.04 13.77L43.04 13.77Q43.06 14.04 43.09 14.25L43.09 14.25L43.09 14.25Q43.13 14.50 43.20 14.70L43.20 14.70L43.20 14.70Q43.26 14.80 43.26 14.83L43.26 14.83L43.26 14.83Q43.29 14.85 43.29 14.94L43.29 14.94L43.29 14.94Q43.29 15.01 43.25 15.08L43.25 15.08L43.25 15.08Q43.20 15.15 43.09 15.18L43.09 15.18L43.09 15.18Q43.05 15.19 42.88 15.19L42.88 15.19L42.88 15.19Q42.74 15.19 42.57 15.08L42.57 15.08L42.57 15.08Q42.41 14.97 42.29 14.60L42.29 14.60L42.29 14.60Q42.22 14.36 42.19 14.02L42.19 14.02L42.19 14.02Q42.15 13.68 42.15 13.20L42.15 13.20L42.15 13.20Q42.15 12.53 42.25 11.47L42.25 11.47L42.25 11.47Q42.34 10.42 42.50 8.97L42.50 8.97L42.50 8.97Q42.67 7.66 42.76 6.69L42.76 6.69L42.76 6.69Q42.84 5.73 42.83 5.11L42.83 5.11L42.83 5.11Q42.74 5.01 42.74 4.89L42.74 4.89L42.74 4.89Q42.74 4.73 42.85 4.61L42.85 4.61L42.85 4.61Q42.95 4.49 43.19 4.49L43.19 4.49L43.19 4.49Q43.25 4.49 43.33 4.51L43.33 4.51L43.33 4.51Q43.41 4.54 43.49 4.60L43.49 4.60L43.49 4.60Q43.57 4.66 43.62 4.78L43.62 4.78L43.62 4.78Q43.68 4.90 43.68 5.11L43.68 5.11L43.68 5.11Q43.68 5.18 43.68 5.26L43.68 5.26L43.68 5.26Q43.68 5.33 43.65 5.45L43.65 5.45L43.65 5.45Q43.64 5.52 43.63 5.54L43.63 5.54L43.63 5.54Q43.62 5.57 43.62 5.60L43.62 5.60L43.62 5.60Q43.69 5.46 43.74 5.33L43.74 5.33L43.74 5.33Q43.79 5.21 43.86 5.10L43.86 5.10L43.86 5.10Q44.06 4.77 44.18 4.63L44.18 4.63L44.18 4.63Q44.31 4.49 44.45 4.49L44.45 4.49L44.45 4.49Q45.14 4.49 45.47 4.86L45.47 4.86ZM44.94 7.11L44.94 6.19L44.94 6.19Q44.94 6.08 44.93 5.92L44.93 5.92L44.93 5.92Q44.93 5.75 44.89 5.60L44.89 5.60L44.89 5.60Q44.86 5.45 44.80 5.33L44.80 5.33L44.80 5.33Q44.74 5.22 44.65 5.22L44.65 5.22L44.65 5.22Q44.63 5.22 44.59 5.26L44.59 5.26L44.59 5.26Q44.55 5.31 44.48 5.46L44.48 5.46L44.48 5.47L44.48 5.47Q44.46 5.49 44.41 5.65L44.41 5.65L44.41 5.65Q44.35 5.81 44.16 6.31L44.16 6.31L44.16 6.31Q43.75 7.35 43.61 7.90L43.61 7.90L43.61 7.90Q43.47 8.44 43.46 8.67L43.46 8.67L43.46 8.67Q43.58 8.74 43.67 8.83L43.67 8.83L43.67 8.83Q43.76 8.92 43.76 9.04L43.76 9.04L43.76 9.04Q43.76 9.14 43.72 9.21L43.72 9.21L43.72 9.21Q43.67 9.27 43.64 9.30L43.64 9.30L43.64 9.30Q43.62 9.30 43.62 9.31L43.62 9.31L43.62 9.31Q43.62 9.39 43.65 9.47L43.65 9.47L43.65 9.47Q43.68 9.55 43.72 9.63L43.72 9.63L43.72 9.65L43.72 9.65Q43.79 9.79 43.86 9.81L43.86 9.81L43.86 9.81Q43.92 9.84 43.99 9.84L43.99 9.84L43.99 9.84Q44.06 9.84 44.22 9.70L44.22 9.70L44.22 9.70Q44.38 9.56 44.60 8.97L44.60 8.97L44.60 8.97Q44.76 8.51 44.85 8.05L44.85 8.05L44.85 8.05Q44.94 7.59 44.94 7.11L44.94 7.11ZM51.04 5.57L51.04 5.57L51.04 5.57Q51.16 5.57 51.26 5.66L51.26 5.66L51.26 5.66Q51.37 5.74 51.37 5.95L51.37 5.95L51.37 5.95Q51.37 6.36 51.23 6.79L51.23 6.79L51.23 6.79Q51.07 7.32 50.91 7.85L50.91 7.85L50.91 7.85Q50.75 8.37 50.58 8.90L50.58 8.90L50.58 8.92L50.58 8.92Q50.02 10.46 49.34 10.46L49.34 10.46L49.34 10.46Q49.07 10.46 48.75 10.30L48.75 10.30L48.75 10.30Q48.43 10.15 48.20 9.63L48.20 9.63L48.20 9.63Q48.20 9.62 48.19 9.59L48.19 9.59L48.19 9.59Q48.17 9.56 48.15 9.46L48.15 9.46L48.15 9.46Q48.12 9.37 48.08 9.18L48.08 9.18L48.08 9.18Q48.03 8.99 47.95 8.67L47.95 8.67L47.95 8.67Q47.80 8.75 47.49 8.96L47.49 8.96L47.49 8.96Q47.47 9.11 47.46 9.31L47.46 9.31L47.46 9.31Q47.45 9.51 47.42 9.73L47.42 9.73L47.42 9.73Q47.52 10.04 47.52 10.25L47.52 10.25L47.52 10.25Q47.52 10.44 47.40 10.56L47.40 10.56L47.40 10.56Q47.28 10.67 47.08 10.67L47.08 10.67L47.08 10.67Q46.84 10.67 46.73 10.42L46.73 10.42L46.73 10.42Q46.62 10.16 46.55 9.86L46.55 9.86L46.55 9.86Q46.52 9.69 46.51 9.48L46.51 9.48L46.51 9.48Q46.49 9.27 46.49 8.99L46.49 8.99L46.49 8.99Q46.49 8.48 46.57 7.50L46.57 7.50L46.57 7.50Q46.65 6.51 46.80 5.04L46.80 5.04L46.80 5.04Q47.11 2.09 47.14 1.01L47.14 1.01L47.14 1.01Q47.07 0.71 47.14 0.43L47.14 0.43L47.14 0.42L47.14 0.42Q47.21 0.11 47.36 0.04L47.36 0.04L47.36 0.04Q47.52-0.04 47.63-0.04L47.63-0.04L47.63-0.04Q47.92-0.04 48.12 0.21L48.12 0.21L48.12 0.21Q48.30 0.41 48.30 0.71L48.30 0.71L48.30 0.71Q48.30 0.91 48.22 1.34L48.22 1.34L48.22 1.34Q48.13 1.78 47.98 2.48L47.98 2.48L47.98 2.48Q47.98 2.51 47.96 2.59L47.96 2.59L47.96 2.59Q47.95 2.67 47.92 2.86L47.92 2.86L47.92 2.86Q47.89 3.04 47.85 3.34L47.85 3.34L47.85 3.34Q47.81 3.64 47.74 4.10L47.74 4.10L47.74 4.10Q47.67 4.68 47.61 5.19L47.61 5.19L47.61 5.19Q47.54 5.71 47.50 6.20L47.50 6.20L47.50 6.20Q47.57 6.03 47.67 5.83L47.67 5.83L47.67 5.83Q47.77 5.63 47.88 5.39L47.88 5.39L47.88 5.39Q48.36 4.41 48.89 4.41L48.89 4.41L48.89 4.41Q49.25 4.41 49.56 4.69L49.56 4.69L49.56 4.69Q49.84 4.97 49.84 5.38L49.84 5.38L49.84 5.38Q49.84 6.03 49.45 6.78L49.45 6.78L49.43 6.79L48.79 7.81L48.79 7.81Q48.78 7.88 48.77 7.99L48.77 7.99L48.77 7.99Q48.76 8.09 48.76 8.20L48.76 8.20L48.76 8.20Q48.76 8.75 48.92 9.18L48.92 9.18L48.92 9.18Q49.06 9.59 49.28 9.59L49.28 9.59L49.28 9.59Q49.29 9.59 49.34 9.58L49.34 9.58L49.34 9.58Q49.38 9.56 49.45 9.49L49.45 9.49L49.45 9.49Q49.52 9.42 49.61 9.28L49.61 9.28L49.61 9.28Q49.70 9.13 49.81 8.86L49.81 8.86L49.81 8.86Q49.94 8.54 50.12 7.95L50.12 7.95L50.12 7.95Q50.30 7.36 50.54 6.52L50.54 6.52L50.54 6.52Q50.57 6.41 50.58 6.30L50.58 6.30L50.58 6.30Q50.60 6.19 50.62 6.08L50.62 6.08L50.64 6.05L50.64 6.05Q50.65 6.01 50.67 5.93L50.67 5.93L50.67 5.93Q50.69 5.85 50.74 5.77L50.74 5.77L50.74 5.77Q50.79 5.68 50.86 5.63L50.86 5.63L50.86 5.63Q50.93 5.57 51.04 5.57ZM48.34 7.08L48.34 7.08L48.34 7.08Q48.97 6.08 48.97 5.29L48.97 5.29L48.97 5.29Q48.97 5.24 48.97 5.21L48.97 5.21L48.97 5.21Q48.96 5.19 48.96 5.18L48.96 5.18L48.94 5.18L48.94 5.18Q48.92 5.18 48.84 5.25L48.84 5.25L48.84 5.25Q48.76 5.32 48.64 5.54L48.64 5.54L48.64 5.54Q48.58 5.66 48.47 5.90L48.47 5.90L48.47 5.90Q48.36 6.15 48.20 6.55L48.20 6.55L48.20 6.55Q48.01 7.06 47.89 7.38L47.89 7.38L47.89 7.38Q47.77 7.71 47.71 7.91L47.71 7.91L47.71 7.91Q47.82 7.81 47.98 7.62L47.98 7.62L47.98 7.62Q48.13 7.43 48.34 7.08ZM52.39 9.66L52.39 9.66L52.39 9.66Q52.02 10.44 51.49 10.44L51.49 10.44L51.49 10.44Q51.31 10.44 51.09 10.35L51.09 10.35L51.09 10.35Q50.88 10.25 50.68 9.93L50.68 9.93L50.68 9.93Q50.55 9.69 50.48 9.40L50.48 9.40L50.48 9.40Q50.41 9.11 50.41 8.75L50.41 8.75L50.41 8.75Q50.41 8.44 50.54 7.07L50.54 7.07L50.54 7.07Q50.61 6.40 50.64 5.99L50.64 5.99L50.64 5.99Q50.67 5.57 50.67 5.43L50.67 5.43L50.67 5.43Q50.67 5.29 50.67 5.22L50.67 5.22L50.67 5.22Q50.67 5.15 50.71 5.12L50.71 5.12L50.71 5.12Q50.75 5.10 50.85 5.11L50.85 5.11L50.85 5.11Q50.96 5.12 51.17 5.17L51.17 5.17L51.17 5.17Q51.56 5.24 51.67 5.35L51.67 5.35L51.67 5.35Q51.77 5.46 51.77 5.54L51.77 5.54L51.77 5.54Q51.77 5.59 51.75 5.67L51.75 5.67L51.75 5.67Q51.73 5.75 51.70 5.85L51.70 5.85L51.70 5.85Q51.67 5.95 51.65 6.03L51.65 6.03L51.65 6.03Q51.63 6.12 51.63 6.15L51.63 6.15L51.63 6.15Q51.60 6.26 51.55 6.55L51.55 6.55L51.55 6.55Q51.51 6.85 51.44 7.17L51.44 7.17L51.44 7.17Q51.35 7.62 51.32 7.99L51.32 7.99L51.32 7.99Q51.28 8.36 51.28 8.78L51.28 8.78L51.28 8.78Q51.28 8.85 51.29 8.97L51.29 8.97L51.29 8.97Q51.30 9.10 51.32 9.23L51.32 9.23L51.32 9.23Q51.34 9.37 51.39 9.46L51.39 9.46L51.39 9.46Q51.44 9.56 51.52 9.58L51.52 9.58L51.52 9.58Q51.55 9.56 51.63 9.44L51.63 9.44L51.63 9.44Q51.72 9.32 51.86 8.96L51.86 8.96L51.86 8.96Q51.88 8.88 52.05 8.50L52.05 8.50L52.05 8.50Q52.22 8.12 52.43 7.45L52.43 7.45L52.43 7.45Q52.50 7.22 52.61 6.90L52.61 6.90L52.61 6.90Q52.72 6.58 52.85 6.13L52.85 6.13L52.85 6.13Q52.86 6.08 52.89 5.99L52.89 5.99L52.89 5.99Q52.92 5.89 52.96 5.81L52.96 5.81L52.96 5.81Q53.00 5.73 53.07 5.67L53.07 5.67L53.07 5.67Q53.14 5.61 53.26 5.61L53.26 5.61L53.26 5.61Q53.30 5.61 53.36 5.68L53.36 5.68L53.36 5.68Q53.42 5.74 53.42 6.03L53.42 6.03L53.42 6.03Q53.42 6.10 53.41 6.22L53.41 6.22L53.41 6.22Q53.40 6.34 53.34 6.59L53.34 6.59L53.34 6.59Q53.28 6.83 53.18 7.21L53.18 7.21L53.18 7.21Q53.07 7.59 52.89 8.18L52.89 8.18L52.89 8.18Q52.70 8.81 52.58 9.16L52.58 9.16L52.58 9.16Q52.46 9.52 52.39 9.66ZM51.52 4.55L51.52 4.55L51.52 4.55Q51.16 4.55 50.95 4.27L50.95 4.27L50.95 4.27Q50.72 4.00 50.72 3.72L50.72 3.72L50.72 3.72Q50.72 3.49 50.95 3.26L50.95 3.26L50.95 3.26Q51.20 3.04 51.39 3.04L51.39 3.04L51.39 3.04Q51.73 3.04 51.91 3.23L51.91 3.23L51.91 3.23Q52.09 3.43 52.09 3.79L52.09 3.79L52.09 3.79Q52.09 4.05 52.03 4.20L52.03 4.20L52.03 4.20Q51.97 4.35 51.87 4.43L51.87 4.43L51.87 4.43Q51.77 4.51 51.67 4.53L51.67 4.53L51.67 4.53Q51.58 4.55 51.52 4.55ZM57.50 5.60L57.50 5.60L57.50 5.60Q57.55 5.60 57.69 5.66L57.69 5.66L57.69 5.66Q57.82 5.73 57.82 6.02L57.82 6.02L57.82 6.02Q57.82 6.48 57.27 8.12L57.27 8.12L57.27 8.12Q56.92 9.20 56.62 9.80L56.62 9.80L56.62 9.80Q56.28 10.44 55.93 10.44L55.93 10.44L55.93 10.44Q55.19 10.44 54.98 9.21L54.98 9.21L54.98 9.21Q54.94 9.02 54.90 8.68L54.90 8.68L54.90 8.68Q54.87 8.34 54.84 7.85L54.84 7.85L54.84 7.85Q54.75 8.20 54.64 8.63L54.64 8.63L54.64 8.63Q54.53 9.06 54.39 9.58L54.39 9.58L54.39 9.58Q54.36 9.65 54.32 9.78L54.32 9.78L54.32 9.78Q54.28 9.91 54.21 10.04L54.21 10.04L54.21 10.04Q54.14 10.18 54.02 10.28L54.02 10.28L54.02 10.28Q53.90 10.37 53.73 10.37L53.73 10.37L53.73 10.37Q53.65 10.37 53.53 10.35L53.53 10.35L53.53 10.35Q53.41 10.32 53.30 10.23L53.30 10.23L53.30 10.23Q53.19 10.15 53.09 10.00L53.09 10.00L53.09 10.00Q53.00 9.84 52.96 9.58L52.96 9.58L52.96 9.56L52.96 9.56Q52.95 9.28 52.93 8.99L52.93 8.99L52.93 8.99Q52.92 8.71 52.91 8.43L52.91 8.43L52.91 8.43Q52.86 7.81 52.91 7.21L52.91 7.21L52.91 7.21Q52.92 6.99 52.93 6.87L52.93 6.87L52.93 6.87Q52.93 6.76 52.95 6.71L52.95 6.71L52.84 6.47L52.84 6.47Q52.81 6.41 52.81 6.37L52.81 6.37L52.81 6.37Q52.84 6.06 52.86 5.94L52.86 5.94L52.86 5.94Q52.88 5.82 52.91 5.77L52.91 5.77L52.91 5.77Q53.03 5.40 53.47 5.40L53.47 5.40L53.47 5.40Q53.70 5.40 53.83 5.53L53.83 5.53L53.83 5.53Q53.96 5.66 53.96 5.87L53.96 5.87L53.96 5.87Q53.96 5.89 53.94 5.96L53.94 5.96L53.94 5.96Q53.93 6.02 53.86 6.27L53.86 6.27L53.86 6.27Q53.82 6.41 53.79 6.52L53.79 6.52L53.79 6.52Q53.76 6.64 53.76 6.75L53.76 6.75L53.76 6.75Q53.76 6.90 53.76 7.13L53.76 7.13L53.76 7.13Q53.76 7.35 53.75 7.63L53.75 7.63L53.75 7.63Q53.75 7.91 53.74 8.09L53.74 8.09L53.74 8.09Q53.73 8.27 53.73 8.36L53.73 8.36L53.73 8.36Q53.73 8.83 53.77 9.02L53.77 9.02L53.77 9.00L53.77 9.00Q53.89 8.60 53.96 8.32L53.96 8.32L53.96 8.32Q54.03 8.04 54.10 7.85L54.10 7.85L54.10 7.85Q54.52 6.55 54.60 5.57L54.60 5.57L54.60 5.57Q54.64 4.83 54.89 4.68L54.89 4.68L54.89 4.68Q54.95 4.63 55.02 4.63L55.02 4.63L55.02 4.63Q55.61 4.68 55.79 4.89L55.79 4.89L55.79 4.89Q55.97 5.11 55.97 5.32L55.97 5.32L55.97 5.36L55.97 5.36Q55.96 5.39 55.93 5.59L55.93 5.59L55.93 5.59Q55.90 5.78 55.80 6.36L55.80 6.36L55.80 6.36Q55.73 6.86 55.69 7.29L55.69 7.29L55.69 7.29Q55.65 7.71 55.65 8.08L55.65 8.08L55.65 8.08Q55.65 8.54 55.68 8.82L55.68 8.82L55.68 8.82Q55.71 9.10 55.75 9.25L55.75 9.25L55.75 9.25Q55.79 9.39 55.82 9.44L55.82 9.44L55.82 9.44Q55.86 9.49 55.87 9.49L55.87 9.49L55.87 9.49Q55.89 9.48 55.94 9.43L55.94 9.43L55.94 9.43Q55.99 9.38 56.07 9.23L56.07 9.23L56.07 9.23Q56.15 9.07 56.28 8.79L56.28 8.79L56.28 8.79Q56.41 8.51 56.56 8.05L56.56 8.05L56.56 8.05Q56.71 7.56 56.84 7.10L56.84 7.10L56.84 7.10Q56.97 6.64 57.06 6.22L57.06 6.22L57.06 6.22Q57.12 5.98 57.21 5.79L57.21 5.79L57.21 5.79Q57.30 5.60 57.50 5.60Z"></path></g><defs data-v-423bf9ae=""><linearGradient data-v-423bf9ae="" gradientTransform="rotate(25)" id="4c931947-e794-497b-9152-55db9ca0bab3" x1="0%" y1="0%" x2="100%" y2="0%"><stop data-v-423bf9ae="" offset="0%" style="stop-color: rgb(73, 36, 126); stop-opacity: 1;"></stop><stop data-v-423bf9ae="" offset="100%" style="stop-color: rgb(170, 73, 199); stop-opacity: 1;"></stop></linearGradient></defs><g data-v-423bf9ae="" id="56b0988f-ddf9-4bc0-95f6-671b402c4aad" transform="matrix(1.2394474995668519,0,0,1.2394474995668519,46.03331595237462,-16.21625862419065)" stroke="none" fill="url(#4c931947-e794-497b-9152-55db9ca0bab3)"><path d="M59.201 24.199c-2.216 0-4.376.241-6.461.688.919-3.925 3.399-6.014 5.005-6.014v-5.441c-4.295 0-9.175 4.932-10.468 11.393a30.903 30.903 0 0 0-3.978-.266c-16.953 0-30.744 13.791-30.744 30.742 0 16.952 13.791 30.744 30.744 30.744a30.64 30.64 0 0 0 8.62-1.239c2.336.57 4.773.879 7.282.879 16.953 0 30.744-13.792 30.744-30.744 0-16.951-13.791-30.742-30.744-30.742zM51.79 79.134C41.443 75.958 33.9 66.315 33.9 54.941c0-10.974 7.023-20.334 16.81-23.831 10.346 3.176 17.892 12.818 17.892 24.191 0 10.974-7.025 20.335-16.812 23.833zM17.997 55.301c0-13.216 10.188-24.091 23.123-25.201-7.667 5.596-12.661 14.644-12.661 24.841 0 10.694 5.492 20.127 13.8 25.637-13.472-.549-24.262-11.674-24.262-25.277zm43.384 24.843c7.667-5.596 12.662-14.645 12.662-24.842 0-10.694-5.492-20.126-13.801-25.635 13.469.548 24.262 11.673 24.262 25.275 0 13.216-10.19 24.092-23.123 25.202z"></path></g><!----><g data-v-423bf9ae="" id="447a931a-a2b2-4c7f-a1b4-576511858cee" fill="#000000" transform="matrix(1.238607778087415,0,0,1.238607778087415,28.047704483043617,198.43523620174886)"><path d="M6.93 4.68C6.34 4.17 5.46 3.92 4.30 3.92L1.89 3.92L0.70 3.92L0.70 4.19C0.70 4.34 0.80 4.42 0.98 4.44L1.12 4.44C1.19 4.44 1.29 4.45 1.43 4.45C1.57 4.45 1.72 4.47 1.89 4.47L1.89 13.26C1.72 13.26 1.57 13.27 1.43 13.27C1.29 13.27 1.19 13.29 1.12 13.29L0.98 13.29C0.80 13.30 0.70 13.38 0.70 13.54L0.70 13.82L1.89 13.82L2.60 13.82L3.78 13.82L3.78 13.54C3.78 13.38 3.68 13.30 3.50 13.29L3.37 13.29C3.30 13.29 3.19 13.27 3.05 13.27C2.91 13.27 2.77 13.26 2.60 13.26L2.60 9.83L4.30 9.83C4.84 9.83 5.33 9.74 5.77 9.60C6.20 9.45 6.57 9.25 6.87 8.99C7.18 8.72 7.42 8.41 7.57 8.05C7.74 7.69 7.81 7.29 7.81 6.86C7.81 5.92 7.52 5.18 6.93 4.68ZM6.90 7.81C6.78 8.11 6.59 8.36 6.36 8.57C6.12 8.78 5.82 8.95 5.47 9.07C5.12 9.20 4.73 9.25 4.30 9.25L2.60 9.25L2.60 4.48L4.30 4.48C5.22 4.48 5.92 4.69 6.40 5.10C6.86 5.50 7.10 6.09 7.10 6.85C7.10 7.20 7.03 7.52 6.90 7.81ZM25.27 8.86C25.27 8.11 25.14 7.41 24.92 6.79C24.70 6.17 24.37 5.64 23.95 5.19C23.53 4.75 23.04 4.40 22.47 4.16C21.90 3.92 21.24 3.79 20.54 3.79C19.84 3.79 19.21 3.92 18.63 4.16C18.06 4.40 17.56 4.75 17.14 5.19C16.72 5.64 16.39 6.17 16.17 6.79C15.95 7.41 15.82 8.11 15.82 8.86C15.82 9.63 15.95 10.33 16.17 10.95C16.39 11.56 16.72 12.10 17.14 12.54C17.56 12.99 18.06 13.33 18.63 13.57C19.21 13.80 19.84 13.93 20.54 13.93C21.24 13.93 21.90 13.80 22.47 13.57C23.04 13.33 23.53 12.99 23.95 12.54C24.37 12.10 24.70 11.56 24.92 10.95C25.14 10.33 25.27 9.63 25.27 8.86ZM24.51 8.86C24.51 9.56 24.43 10.18 24.23 10.72C24.04 11.27 23.77 11.75 23.42 12.12C23.07 12.50 22.65 12.81 22.16 13.01C21.67 13.20 21.14 13.30 20.54 13.30C19.95 13.30 19.42 13.20 18.93 13.01C18.44 12.81 18.02 12.50 17.67 12.12C17.32 11.75 17.04 11.27 16.84 10.72C16.65 10.18 16.56 9.56 16.56 8.86C16.56 8.18 16.65 7.55 16.84 7.00C17.04 6.45 17.32 5.98 17.67 5.60C18.02 5.22 18.44 4.91 18.93 4.72C19.42 4.52 19.95 4.41 20.54 4.41C21.14 4.41 21.67 4.52 22.16 4.72C22.65 4.91 23.07 5.22 23.42 5.60C23.77 5.98 24.04 6.45 24.23 7.00C24.43 7.55 24.51 8.18 24.51 8.86ZM41.54 13.29L41.44 13.29L41.26 13.29C41.17 13.29 41.09 13.27 41.01 13.27L38.04 9.53C37.95 9.42 37.84 9.32 37.73 9.25C38.16 9.21 38.56 9.11 38.91 8.96C39.26 8.81 39.54 8.61 39.79 8.37C40.03 8.13 40.22 7.85 40.35 7.55C40.47 7.24 40.54 6.89 40.54 6.51C40.54 5.66 40.26 5.03 39.70 4.58C39.14 4.14 38.29 3.92 37.14 3.92L34.73 3.92L33.56 3.92L33.56 4.19C33.56 4.34 33.64 4.42 33.82 4.44L33.96 4.44C34.03 4.44 34.13 4.45 34.27 4.45C34.41 4.45 34.57 4.47 34.73 4.47L34.73 13.26C34.57 13.26 34.41 13.27 34.27 13.27C34.13 13.27 34.03 13.29 33.96 13.29L33.82 13.29C33.64 13.30 33.54 13.38 33.54 13.54L33.54 13.82L34.73 13.82L35.45 13.82L36.62 13.82L36.62 13.54C36.62 13.38 36.53 13.30 36.34 13.29L36.20 13.29C36.13 13.29 36.04 13.27 35.90 13.27C35.76 13.27 35.62 13.26 35.45 13.26L35.45 9.34L36.62 9.34C36.82 9.34 36.96 9.35 37.04 9.39C37.13 9.44 37.21 9.52 37.30 9.62L40.47 13.64C40.53 13.71 40.57 13.75 40.63 13.78C40.68 13.80 40.75 13.82 40.82 13.82L40.89 13.82L41.44 13.82L41.80 13.82L41.80 13.54C41.80 13.38 41.72 13.30 41.54 13.29ZM37.04 8.81L35.45 8.81L35.45 4.48L37.14 4.48C38.02 4.48 38.70 4.66 39.16 5.00C39.62 5.33 39.84 5.87 39.84 6.57C39.84 6.92 39.79 7.21 39.66 7.49C39.54 7.77 39.34 7.99 39.10 8.19C38.86 8.39 38.57 8.55 38.22 8.65C37.87 8.75 37.48 8.81 37.04 8.81ZM57.22 3.92L57.02 3.92L49.73 3.92L49.52 3.92L49.42 3.92L49.42 5.96L49.77 5.96C49.97 5.96 50.05 5.85 50.06 5.63C50.06 5.53 50.09 5.17 50.12 4.52L53.02 4.52L53.02 13.26C52.85 13.26 52.71 13.27 52.57 13.27C52.43 13.27 52.32 13.29 52.25 13.29L52.12 13.29C51.94 13.30 51.84 13.38 51.84 13.54L51.84 13.82L53.02 13.82L53.73 13.82L54.92 13.82L54.92 13.54C54.92 13.38 54.82 13.30 54.64 13.29L54.50 13.29C54.43 13.29 54.33 13.27 54.19 13.27C54.05 13.27 53.90 13.26 53.73 13.26L53.73 4.52L56.62 4.52C56.66 5.24 56.67 5.60 56.67 5.63C56.69 5.85 56.78 5.96 56.98 5.96L57.32 5.96L57.32 3.92ZM73.42 13.29L73.32 13.29L73.14 13.29C73.05 13.29 72.97 13.27 72.88 13.27L69.92 9.53C69.83 9.42 69.72 9.32 69.61 9.25C70.04 9.21 70.43 9.11 70.78 8.96C71.13 8.81 71.41 8.61 71.67 8.37C71.90 8.13 72.10 7.85 72.23 7.55C72.35 7.24 72.42 6.89 72.42 6.51C72.42 5.66 72.14 5.03 71.58 4.58C71.02 4.14 70.17 3.92 69.02 3.92L66.61 3.92L65.44 3.92L65.44 4.19C65.44 4.34 65.52 4.42 65.70 4.44L65.84 4.44C65.91 4.44 66.01 4.45 66.15 4.45C66.29 4.45 66.44 4.47 66.61 4.47L66.61 13.26C66.44 13.26 66.29 13.27 66.15 13.27C66.01 13.27 65.91 13.29 65.84 13.29L65.70 13.29C65.52 13.30 65.42 13.38 65.42 13.54L65.42 13.82L66.61 13.82L67.33 13.82L68.50 13.82L68.50 13.54C68.50 13.38 68.40 13.30 68.22 13.29L68.08 13.29C68.01 13.29 67.91 13.27 67.77 13.27C67.63 13.27 67.49 13.26 67.33 13.26L67.33 9.34L68.50 9.34C68.70 9.34 68.84 9.35 68.92 9.39C69.01 9.44 69.09 9.52 69.17 9.62L72.35 13.64C72.41 13.71 72.45 13.75 72.51 13.78C72.56 13.80 72.63 13.82 72.70 13.82L72.77 13.82L73.32 13.82L73.68 13.82L73.68 13.54C73.68 13.38 73.60 13.30 73.42 13.29ZM68.92 8.81L67.33 8.81L67.33 4.48L69.02 4.48C69.90 4.48 70.57 4.66 71.04 5.00C71.50 5.33 71.72 5.87 71.72 6.57C71.72 6.92 71.67 7.21 71.54 7.49C71.41 7.77 71.22 7.99 70.98 8.19C70.74 8.39 70.45 8.55 70.10 8.65C69.75 8.75 69.36 8.81 68.92 8.81ZM91.18 13.22L90.72 13.17L86.94 3.91L86.23 3.91L82.43 13.17L81.98 13.22C81.80 13.23 81.72 13.33 81.72 13.50L81.72 13.82L82.17 13.82L82.46 13.82L82.71 13.82L82.81 13.82L84.13 13.82L84.13 13.50C84.13 13.31 84.01 13.23 83.80 13.22C83.79 13.22 83.76 13.20 83.72 13.20C83.68 13.20 83.62 13.19 83.52 13.19C83.43 13.19 83.30 13.19 83.16 13.17L84.14 10.75L84.21 10.57L88.94 10.57L89.01 10.75L89.99 13.17C89.85 13.19 89.74 13.19 89.64 13.19C89.54 13.19 89.47 13.20 89.43 13.20C89.39 13.20 89.36 13.22 89.35 13.22C89.14 13.23 89.03 13.31 89.03 13.50L89.03 13.82L90.34 13.82L90.44 13.82L90.71 13.82L90.99 13.82L91.45 13.82L91.45 13.50C91.45 13.33 91.36 13.23 91.18 13.22ZM86.38 5.22C86.41 5.14 86.45 5.04 86.48 4.94C86.51 4.84 86.55 4.75 86.58 4.63C86.60 4.75 86.65 4.84 86.67 4.94C86.70 5.04 86.74 5.12 86.77 5.21L88.73 10.04L84.43 10.04ZM102.49 4.44C102.68 4.42 102.76 4.34 102.76 4.19L102.76 3.91L101.58 3.91L100.87 3.91L99.68 3.91L99.68 4.19C99.68 4.34 99.78 4.42 99.96 4.44L100.10 4.44C100.17 4.44 100.27 4.45 100.41 4.45C100.55 4.45 100.70 4.47 100.87 4.47L100.87 13.26C100.70 13.26 100.55 13.27 100.41 13.27C100.27 13.27 100.17 13.29 100.10 13.29L99.96 13.29C99.78 13.30 99.68 13.38 99.68 13.54L99.68 13.82L100.87 13.82L101.58 13.82L102.76 13.82L102.76 13.54C102.76 13.38 102.68 13.30 102.49 13.29L102.35 13.29C102.28 13.29 102.19 13.27 102.05 13.27C101.91 13.27 101.75 13.26 101.58 13.26L101.58 4.47C101.75 4.47 101.91 4.45 102.05 4.45C102.19 4.45 102.28 4.44 102.35 4.44ZM118.62 3.92L118.43 3.92L111.13 3.92L110.92 3.92L110.82 3.92L110.82 5.96L111.17 5.96C111.37 5.96 111.45 5.85 111.47 5.63C111.47 5.53 111.50 5.17 111.52 4.52L114.42 4.52L114.42 13.26C114.25 13.26 114.11 13.27 113.97 13.27C113.83 13.27 113.72 13.29 113.65 13.29L113.53 13.29C113.34 13.30 113.25 13.38 113.25 13.54L113.25 13.82L114.42 13.82L115.14 13.82L116.33 13.82L116.33 13.54C116.33 13.38 116.23 13.30 116.05 13.29L115.91 13.29C115.84 13.29 115.74 13.27 115.60 13.27C115.46 13.27 115.30 13.26 115.14 13.26L115.14 4.52L118.02 4.52C118.06 5.24 118.08 5.60 118.08 5.63C118.09 5.85 118.19 5.96 118.38 5.96L118.72 5.96L118.72 3.92ZM132.55 9.91C132.41 9.65 132.22 9.39 131.98 9.21C131.74 9.03 131.49 8.88 131.19 8.75C130.90 8.62 130.58 8.51 130.27 8.41C129.96 8.32 129.65 8.20 129.36 8.11C129.07 7.99 128.80 7.87 128.56 7.71C128.32 7.56 128.14 7.38 128.00 7.15C127.86 6.93 127.78 6.65 127.78 6.31C127.78 6.06 127.83 5.82 127.93 5.59C128.03 5.35 128.17 5.15 128.35 4.97C128.53 4.79 128.76 4.65 129.04 4.55C129.32 4.45 129.63 4.40 129.99 4.40C130.66 4.40 131.28 4.51 131.84 4.75C131.88 5.54 131.91 5.99 131.91 6.06C131.92 6.29 132.01 6.41 132.20 6.41L132.54 6.41L132.54 4.38C131.66 4.00 130.82 3.81 129.99 3.81C129.53 3.81 129.12 3.88 128.76 4.02C128.39 4.16 128.10 4.34 127.86 4.58C127.62 4.82 127.43 5.08 127.30 5.39C127.18 5.70 127.12 6.02 127.12 6.36C127.12 6.78 127.19 7.14 127.33 7.42C127.47 7.70 127.67 7.92 127.90 8.12C128.14 8.32 128.39 8.46 128.69 8.58C128.98 8.71 129.30 8.82 129.61 8.92C129.92 9.02 130.21 9.11 130.52 9.21C130.82 9.31 131.08 9.45 131.32 9.60C131.56 9.76 131.74 9.94 131.88 10.16C132.02 10.39 132.09 10.68 132.09 11.03C132.09 11.35 132.03 11.66 131.92 11.94C131.81 12.22 131.66 12.46 131.45 12.67C131.24 12.88 130.97 13.05 130.66 13.16C130.35 13.29 130.00 13.33 129.61 13.33C128.83 13.33 128.17 13.20 127.64 12.95C127.62 12.75 127.62 12.54 127.61 12.32C127.60 12.10 127.60 11.91 127.58 11.76C127.57 11.61 127.57 11.52 127.57 11.51C127.55 11.28 127.46 11.17 127.26 11.17L126.92 11.17L126.92 13.02L126.92 13.20L126.92 13.38C127.78 13.75 128.66 13.93 129.58 13.93C130.09 13.93 130.54 13.85 130.93 13.69C131.32 13.54 131.66 13.31 131.92 13.05C132.19 12.78 132.41 12.46 132.55 12.10C132.69 11.73 132.76 11.34 132.76 10.92C132.76 10.51 132.69 10.18 132.55 9.91Z"></path></g></svg>